<?xml version="1.0" encoding="UTF-8" standalone="no"?>
<svg
   xmlns:dc="http://purl.org/dc/elements/1.1/"
   xmlns:cc="http://creativecommons.org/ns#"
   xmlns:rdf="http://www.w3.org/1999/02/22-rdf-syntax-ns#"
   xmlns:svg="http://www.w3.org/2000/svg"
   xmlns="http://www.w3.org/2000/svg"
   xmlns:sodipodi="http://sodipodi.sourceforge.net/DTD/sodipodi-0.dtd"
   xmlns:inkscape="http://www.inkscape.org/namespaces/inkscape"
   data-name="Layer 1"
   viewBox="0 0 700.00002 700.00001"
   version="1.1"
   id="svg6"
   sodipodi:docname="vans-logo.svg"
   width="700"
   height="700"
   inkscape:export-filename="G:\Users\suitedoalex\sites\vans-logo-0.png"
   inkscape:export-xdpi="561.73712"
   inkscape:export-ydpi="561.73712"
   inkscape:version="0.92.4 (5da689c313, 2019-01-14)">
  <metadata
     id="metadata12">
    <rdf:RDF>
      <cc:Work
         rdf:about="">
        <dc:format>image/svg+xml</dc:format>
        <dc:type
           rdf:resource="http://purl.org/dc/dcmitype/StillImage" />
        <dc:title></dc:title>
      </cc:Work>
    </rdf:RDF>
  </metadata>
  <defs
     id="defs10" />
  <sodipodi:namedview
     pagecolor="#ffffff"
     bordercolor="#666666"
     borderopacity="1"
     objecttolerance="10"
     gridtolerance="10"
     guidetolerance="10"
     inkscape:pageopacity="0"
     inkscape:pageshadow="2"
     inkscape:window-width="1600"
     inkscape:window-height="837"
     id="namedview8"
     showgrid="false"
     inkscape:zoom="0.40190606"
     inkscape:cx="-64.628378"
     inkscape:cy="118.04926"
     inkscape:window-x="-8"
     inkscape:window-y="-8"
     inkscape:window-maximized="1"
     inkscape:current-layer="svg6" />
  <path
     d="m 66.262024,445.6679 h -9.364732 l -1.774528,-20.10137 h 9.379645 z m 567.475946,0 h 9.37965 l 1.78944,-20.10137 h -9.37965 z M 49.575503,425.56653 H 40.21077 l 1.789439,20.10137 h 9.379645 z M 648.62014,445.6679 h 9.37965 l 1.78944,-20.10137 h -9.37965 z m -534.92306,4.89113 a 12.660283,12.660283 0 0 1 -12.73484,13.15238 12.883963,12.883963 0 0 1 -12.809408,-13.3015 v -0.1342 c 0,-7.11303 5.08499,-13.15238 12.675198,-13.15238 a 12.898875,12.898875 0 0 1 12.88396,13.3015 v 0.1342 m -39.800113,0 c 0,14.13657 11.452412,25.46969 26.841593,25.46969 15.38918,0 27.06527,-11.46732 27.06527,-25.61881 v -0.1342 c 0,-14.15149 -11.45241,-25.46969 -26.84159,-25.46969 -15.389181,0 -27.065273,11.46732 -27.065273,25.61881 v 0.1342 m 62.630373,24.4855 h 13.88307 v -17.59616 h 23.66534 V 446.11526 H 150.3955 v -8.38054 h 26.20037 v -11.9296 h -40.08344 v 49.20958 z m 48.16575,0 h 13.88306 v -17.59616 h 23.69516 v -11.33311 h -23.71007 v -8.38054 h 26.20037 v -11.9296 h -40.09835 v 49.20958 z m 79.16777,0 h 13.88307 v -37.27999 h 15.03129 v -11.92959 h -43.97547 v 11.92959 h 15.07603 v 37.27999 z m 38.0405,0 h 13.88307 v -18.71455 h 17.89439 v 18.71455 h 13.88307 v -49.20958 h -13.88307 v 18.43122 h -17.89439 v -18.47596 h -13.88307 v 49.20958 z m 55.01035,0 h 40.66501 v -11.61645 h -26.94598 v -7.81388 h 24.05305 v -10.76646 h -24.05305 v -7.456 h 26.55827 V 425.7753 h -40.26239 v 49.20958 z m 78.80989,0.35789 h 12.09363 l 10.02086,-28.33279 10.09542,28.33279 h 12.09363 l 16.74617,-49.61221 h -14.39008 l -8.73843,28.49682 -9.66297,-28.64594 h -11.9296 l -9.66297,28.64594 -8.73843,-28.49682 h -14.68831 z m 77.30378,-19.77331 5.65164,-14.00236 5.57709,14.00236 h -11.24364 z m -22.26361,19.38559 h 14.59884 l 3.57888,-8.79807 H 528.34 l 3.65343,8.79807 h 14.912 l -21.32415,-49.6122 h -13.4208 z m 62.63038,0 h 38.15979 v -11.92959 h -24.23199 v -37.27999 h -13.88307 v 49.20958 z m 45.8842,0 h 38.1598 V 463.08511 H 613.21907 V 425.80512 H 599.336 v 49.20958 z"
     id="path2"
     inkscape:connector-curvature="0"
     style="stroke-width:1.49119949"
     inkscape:export-filename="G:\Users\suitedoalex\sites\vans-logo-4.png"
     inkscape:export-xdpi="61.977619"
     inkscape:export-ydpi="61.977619" />
  <path
     d="m 577.34081,301.85663 h -26.93106 c -2.6096,-6.62093 -5.53235,-11.76557 -20.62329,-11.76557 -10.4384,0 -14.912,4.29466 -14.912,8.60422 0,4.71219 3.71309,8.67878 15.21024,11.22873 l 24.39602,6.50163 c 15.97075,4.26483 23.71007,16.94003 23.71007,30.331 0,7.456 -1.61049,16.40319 -8.67878,23.85919 -5.27884,5.50253 -13.27167,12.76467 -39.77029,12.76467 -36.44491,0 -48.41924,-23.03903 -48.41924,-36.95192 h 28.33279 c 2.78854,10.16998 9.76735,14.03218 23.57586,14.03218 9.5735,0 17.79001,-3.41484 17.79001,-10.73663 0,-6.9639 -5.9648,-9.58842 -13.64448,-11.69101 l -19.2812,-5.20428 c -9.29018,-2.83328 -17.05933,-5.0999 -22.54694,-9.73753 -14.36025,-12.16819 -13.31641,-34.13356 2.29645,-45.55615 8.64895,-6.32268 17.50668,-9.61823 31.56869,-9.61823 16.52249,0 25.96178,4.71219 33.38795,9.84191 6.59111,4.4736 14.4199,15.47865 14.4199,24.15743 M 122.40568,224.03093 c 0.22368,0.96928 56.36734,158.06714 56.36734,158.06714 h 33.50725 l 51.61042,-130.77819 h 320.60788 l 2.43065,-27.33369 H 239.33063 L 196.50338,332.35165 158.01553,223.97128 h -35.53529 m 277.1096,101.53577 41.84305,56.50155 h 26.18546 V 270.27302 H 437.4663 V 331.0394 L 399.58984,270.27302 H 370.66057 V 382.0086 h 28.92927 z m 188.41305,50.70078 a 5.9647978,5.9647978 0 1 0 -5.9648,5.9648 5.9647978,5.9647978 0 0 0 6.03936,-5.9648 z m -0.68596,0 a 5.249022,5.249022 0 1 1 -5.23411,-5.26393 5.219198,5.219198 0 0 1 5.30867,5.26393 z m -2.41574,-1.2377 a 2.1324152,2.1324152 0 0 0 -2.47539,-2.08768 h -2.80346 v 6.32269 h 1.40173 v -2.02803 h 1.10349 l 1.34208,2.02803 h 1.62541 l -1.4912,-2.26662 a 1.9683833,1.9683833 0 0 0 1.3719,-1.96839 z m -1.41664,0.0746 a 0.92454365,0.92454365 0 0 1 -1.07366,0.92455 h -1.40173 v -1.84909 h 1.35699 a 0.93945565,0.93945565 0 0 1 1.19296,0.93946 z m -343.45305,6.96391 h 32.13534 l 5.9648,-17.47686 h 42.54392 l 6.15865,17.47686 h 31.64326 L 317.97649,270.27302 h -34.07391 z m 47.1219,-37.69753 12.45151,-37.14577 12.28749,37.14577 h -24.81356 z"
     id="path4"
     inkscape:connector-curvature="0"
     style="fill:#d51920;stroke-width:1.49119949"
     inkscape:export-filename="G:\Users\suitedoalex\sites\vans-logo-4.png"
     inkscape:export-xdpi="61.977619"
     inkscape:export-ydpi="61.977619" />
  <path
     d="m 66.262024,1031.4253 h -9.364732 l -1.774528,-20.1014 h 9.379645 z m 567.475946,0 h 9.37965 l 1.78944,-20.1014 h -9.37965 z M 49.575503,1011.3239 H 40.21077 l 1.789439,20.1014 h 9.379645 z m 599.044637,20.1014 h 9.37965 l 1.78944,-20.1014 h -9.37965 z m -534.92306,4.8911 a 12.660283,12.660283 0 0 1 -12.73484,13.1524 12.883963,12.883963 0 0 1 -12.809408,-13.3015 v -0.1342 c 0,-7.1131 5.08499,-13.1524 12.675198,-13.1524 a 12.898875,12.898875 0 0 1 12.88396,13.3015 v 0.1342 m -39.800113,0 c 0,14.1366 11.452415,25.4697 26.841593,25.4697 15.38918,0 27.06527,-11.4673 27.06527,-25.6188 v -0.1342 c 0,-14.1515 -11.45241,-25.4697 -26.84159,-25.4697 -15.389178,0 -27.065273,11.4673 -27.065273,25.6188 v 0.1342 m 62.630373,24.4855 h 13.88307 v -17.5962 h 23.66534 v -11.3331 H 150.3955 v -8.3805 h 26.20037 v -11.9296 h -40.08344 v 49.2096 z m 48.16575,0 h 13.88306 v -17.5962 h 23.69516 v -11.3331 h -23.71007 v -8.3805 h 26.20037 v -11.9296 h -40.09835 v 49.2096 z m 79.16777,0 h 13.88307 v -37.28 h 15.03129 v -11.9296 h -43.97547 v 11.9296 h 15.07603 v 37.28 z m 38.0405,0 h 13.88307 v -18.7146 h 17.89439 v 18.7146 h 13.88307 v -49.2096 h -13.88307 v 18.4312 h -17.89439 v -18.4759 h -13.88307 v 49.2095 z m 55.01035,0 h 40.66501 v -11.6165 h -26.94598 v -7.8138 h 24.05305 v -10.7665 h -24.05305 v -7.456 h 26.55827 v -11.6164 h -40.26239 v 49.2095 z m 78.80989,0.3579 h 12.09363 l 10.02086,-28.3328 10.09542,28.3328 h 12.09363 l 16.74617,-49.6122 h -14.39008 l -8.73843,28.4968 -9.66297,-28.646 h -11.9296 l -9.66297,28.646 -8.73843,-28.4968 h -14.68831 z m 77.30378,-19.7733 5.65164,-14.0024 5.57709,14.0024 h -11.24364 z m -22.26361,19.3856 h 14.59884 l 3.57888,-8.7981 H 528.34 l 3.65343,8.7981 h 14.912 l -21.32415,-49.6122 h -13.4208 z m 62.63038,0 h 38.15979 v -11.9296 h -24.23199 v -37.28 h -13.88307 v 49.2096 z m 45.8842,0 h 38.1598 v -11.9296 h -24.23199 v -37.28 H 599.336 v 49.2096 z"
     id="path2-5"
     inkscape:connector-curvature="0"
     style="fill:#000000;stroke-width:1.49119949"
     inkscape:export-filename="G:\Users\suitedoalex\sites\vans-logo-5.png"
     inkscape:export-xdpi="61.977619"
     inkscape:export-ydpi="61.977619" />
  <path
     d="m 577.34081,887.61399 h -26.93106 c -2.6096,-6.62093 -5.53235,-11.76557 -20.62329,-11.76557 -10.4384,0 -14.912,4.29466 -14.912,8.60422 0,4.71219 3.71309,8.67878 15.21024,11.22873 l 24.39602,6.50163 c 15.97075,4.26483 23.71007,16.94003 23.71007,30.331 0,7.456 -1.61049,16.40319 -8.67878,23.85919 -5.27884,5.50253 -13.27167,12.76467 -39.77029,12.76467 -36.44491,0 -48.41924,-23.03903 -48.41924,-36.95192 h 28.33279 c 2.78854,10.16998 9.76735,14.03218 23.57586,14.03218 9.5735,0 17.79001,-3.41484 17.79001,-10.73663 0,-6.9639 -5.9648,-9.58842 -13.64448,-11.69101 l -19.2812,-5.20428 c -9.29018,-2.83328 -17.05933,-5.0999 -22.54694,-9.73753 -14.36025,-12.16819 -13.31641,-34.13356 2.29645,-45.55615 8.64895,-6.32268 17.50668,-9.61823 31.56869,-9.61823 16.52249,0 25.96178,4.71219 33.38795,9.84191 6.59111,4.4736 14.4199,15.47865 14.4199,24.15743 M 122.40568,809.78829 c 0.22368,0.96928 56.36734,158.06714 56.36734,158.06714 h 33.50725 l 51.61042,-130.77819 h 320.60788 l 2.43065,-27.33369 H 239.33063 L 196.50338,918.10901 158.01553,809.72864 h -35.53529 m 277.1096,101.53577 41.84305,56.50155 h 26.18546 V 856.03038 H 437.4663 v 60.76638 l -37.87646,-60.76638 h -28.92927 v 111.73558 h 28.92927 z m 188.41305,50.70078 a 5.9647978,5.9647978 0 1 0 -5.9648,5.9648 5.9647978,5.9647978 0 0 0 6.03936,-5.9648 z m -0.68596,0 a 5.249022,5.249022 0 1 1 -5.23411,-5.26393 5.219198,5.219198 0 0 1 5.30867,5.26393 z m -2.41574,-1.2377 a 2.1324152,2.1324152 0 0 0 -2.47539,-2.08768 h -2.80346 v 6.32269 h 1.40173 v -2.02803 h 1.10349 l 1.34208,2.02803 h 1.62541 l -1.4912,-2.26662 a 1.9683833,1.9683833 0 0 0 1.3719,-1.96839 z m -1.41664,0.0746 a 0.92454365,0.92454365 0 0 1 -1.07366,0.92455 h -1.40173 v -1.84909 h 1.35699 a 0.93945565,0.93945565 0 0 1 1.19296,0.93946 z M 240.0315,967.766 h 32.13534 l 5.9648,-17.47686 h 42.54392 l 6.15865,17.47686 h 31.64326 L 317.97649,856.03038 h -34.07391 z m 47.1219,-37.69753 12.45151,-37.14577 12.28749,37.14577 h -24.81356 z"
     id="path4-1"
     inkscape:connector-curvature="0"
     style="fill:#000000;stroke-width:1.49119949"
     inkscape:export-filename="G:\Users\suitedoalex\sites\vans-logo-5.png"
     inkscape:export-xdpi="61.977619"
     inkscape:export-ydpi="61.977619" />
</svg>
